# xmcd
#
# Track frame offsets:
#	150
#	14532
#	29016
#	40547
#	53725
#	74104
#	93833
#	111229
#	132063
#	148787
#	164235
#	179050
#
# Disc length: 2636 seconds
#
# Revision: 0
# Processed by: cddbd v1.5.2PL0 Copyright (c) Steve Scherf et al.
# Submitted via: EasyCDDAExtractor 11.0.2.1
#
DISCID=b40a4a0c
DTITLE=Andreea Craiovan - Pentru Tine
DYEAR=1900
DGENRE=
TTITLE0=Domnul are mila
TTITLE1=Inchina-te doar Lui
TTITLE2=O chemare
TTITLE3=Taticul si Prietenul meu
TTITLE4=Inaintea Ta
TTITLE5=Durerea mi-e prea mare
TTITLE6=Pe genunchi
TTITLE7=Via Dolorosa
TTITLE8=Maretul har
TTITLE9=Cant Domnului
TTITLE10=Pe calea ingusta
TTITLE11=Poporasul meu (remix)
EXTD=
EXTT0=
EXTT1=
EXTT2=
EXTT3=
EXTT4=
EXTT5=
EXTT6=
EXTT7=
EXTT8=
EXTT9=
EXTT10=
EXTT11=
PLAYORDER=
